<?xml version="1.0" encoding="UTF-8"?>
<svg width="25px" height="25px" viewBox="0 0 28 28" version="1.1" xmlns="http://www.w3.org/2000/svg" xmlns:xlink="http://www.w3.org/1999/xlink">
    <!-- Uploaded to SVGRepo https://www.svgrepo.com -->
    <title>ic_fluent_add_28_regular</title>
    <desc>Created with Sketch.</desc>
    <g id="ðŸ”-Product-Icons" stroke="none" stroke-width="1" fill="none" fill-rule="evenodd">
        <g id="ic_fluent_add_28_regular" fill="#212121" fill-rule="nonzero">
            <path d="M6.211.361c-1.322.24-2.37 1.282-2.597 2.584-.035.203-.041.667-.041 3.357v3.122l-.132.201c-.662 1.011-.812 2.353-.387 3.471.306.801.76 1.39 1.466 1.896.223.161.678.387.973.485.422.14.639.178 1.107.194.533.019.908-.03 1.35-.177 1.411-.47 2.39-1.586 2.68-3.055.071-.361.066-1.028-.012-1.418-.103-.521-.317-1.048-.575-1.421l-.083-.12-.015-3.173c-.016-3.415-.01-3.294-.163-3.77A3.21 3.21 0 0 0 7.28.36a3.905 3.905 0 0 0-1.069.001M7.213 1.75c.578.14 1.08.623 1.284 1.237.046.138.05.342.063 3.533l.013 3.387.063.128c.035.07.099.154.143.186.177.131.414.654.488 1.077.078.45.046.854-.105 1.296-.48 1.411-2.104 2.105-3.473 1.486a2.642 2.642 0 0 1-.975-.773 3.064 3.064 0 0 1-.452-.947 2.933 2.933 0 0 1 .002-1.227 2.76 2.76 0 0 1 .426-.905 5.13 5.13 0 0 0 .193-.281c.031-.056.039-.618.051-3.427l.013-3.36.062-.187c.1-.3.234-.514.469-.749.314-.314.623-.468 1.042-.518.201-.025.486-.006.693.044m5.745.606a.534.534 0 0 0-.263.183c-.109.139-.12.205-.134.866l-.014.645-.534-.175c-.63-.206-.801-.231-.985-.142-.148.071-.269.236-.339.46-.065.211-.062.356.011.501.1.199.224.267.86.479.41.137.569.201.552.223-.244.321-.657.918-.698 1.007a.62.62 0 0 0-.013.461.988.988 0 0 0 .166.209c.272.266.574.333.812.182.136-.086.205-.167.592-.703.146-.201.272-.365.28-.365.009.001.148.184.309.407.46.638.575.74.832.739.341-.001.752-.365.754-.668.001-.177-.079-.33-.427-.81-.191-.263-.337-.486-.326-.496.011-.01.267-.097.569-.194.587-.189.717-.258.828-.436.173-.279-.032-.88-.344-1.011-.173-.071-.333-.046-.926.146l-.56.181-.014-.629c-.013-.565-.02-.642-.07-.749-.113-.242-.306-.348-.633-.346a1.169 1.169 0 0 0-.285.035M6.594 6.828c-.218.03-.363.131-.452.312l-.075.153-.009 1.6-.008 1.6-.134.092c-.356.243-.607.723-.609 1.163-.002.462.261.937.671 1.211a1.433 1.433 0 0 0 1.531.005c.41-.27.64-.656.669-1.124a1.43 1.43 0 0 0-.606-1.268l-.132-.097V8.922c0-1.662-.003-1.698-.134-1.883-.115-.161-.421-.252-.712-.211m.206 4.934c0 .068-.088.061-.102-.009-.006-.032.009-.046.047-.046s.055.017.055.055"></path>
        </g>
    </g>
</svg>