<?xml version="1.0" encoding="UTF-8"?>
<svg width="25px" height="25px" viewBox="0 0 28 28" version="1.1" xmlns="http://www.w3.org/2000/svg" xmlns:xlink="http://www.w3.org/1999/xlink">
    <!-- Uploaded to SVGRepo https://www.svgrepo.com -->
    <title>ic_fluent_add_28_regular</title>
    <desc>Created with Sketch.</desc>
    <g id="ðŸ”-Product-Icons" stroke="none" stroke-width="1" fill="none" fill-rule="evenodd">
        <g id="ic_fluent_add_28_regular" fill="#212121" fill-rule="nonzero">
            <path d="M9.608 5.45c-1.54 0-2.995-.175-4.099-.496-1.373-.398-2.07-.98-2.07-1.729 0-.749.697-1.33 2.07-1.729C6.613 1.176 8.07 1 9.608 1c1.54 0 2.995.176 4.098.496 1.374.399 2.07.98 2.07 1.73 0 .748-.696 1.33-2.07 1.729-1.103.32-2.558.496-4.098.496ZM4.69 3.226c.107.12.489.383 1.402.616.966.246 2.214.382 3.515.382 1.301 0 2.55-.136 3.514-.382.914-.233 1.296-.496 1.403-.616-.107-.119-.49-.382-1.403-.615-.965-.247-2.213-.382-3.514-.382-1.301 0-2.55.135-3.515.382-.913.233-1.295.496-1.402.615Z"></path>
            <path d="M9.614 18.96c-2.022 0-4.043-.431-5.924-1.294l-.06-.027a.614.614 0 0 1-.323-.35 20.295 20.295 0 0 1-1.223-7.128 19.881 19.881 0 0 1 1.4-7.121l1.143.45c-1.677 4.245-1.763 8.782-.25 13.139a12.988 12.988 0 0 0 10.347.055A19.49 19.49 0 0 0 14.6 3.492l.56-.207.002-.62h.017c.255.001.484.16.572.4a20.642 20.642 0 0 1 1.298 7.14 20.639 20.639 0 0 1-1.258 7.145.614.614 0 0 1-.324.35 14.217 14.217 0 0 1-5.852 1.26Z"></path>
             <path d="M7.365 18.472c-.68-1.664-1.07-4.146-1.07-6.81 0-2.81.447-5.465 1.196-7.101l1.116.51c-.68 1.485-1.085 3.948-1.085 6.591 0 2.474.366 4.846.98 6.346l-1.137.464ZM11.76 18.485l-1.135-.466c.616-1.5.983-3.876.983-6.357 0-2.641-.405-5.104-1.084-6.589l1.117-.51c.749 1.636 1.195 4.29 1.195 7.099 0 2.672-.392 5.159-1.075 6.823Z"></path>
              <path d="M9.558 12.058c-1.548 0-3.097-.134-4.62-.402a.603.603 0 0 1-.483-.715.626.626 0 0 1 .724-.49c3.642.637 7.43.47 10.996-.492a.614.614 0 0 1 .32 1.185 26.685 26.685 0 0 1-6.937.914Z"></path>
        </g>
    </g>
</svg>