<?xml version="1.0" encoding="UTF-8"?>
<svg width="25px" height="25px" viewBox="0 0 28 28" version="1.1" xmlns="http://www.w3.org/2000/svg" xmlns:xlink="http://www.w3.org/1999/xlink">
    <!-- Uploaded to SVGRepo https://www.svgrepo.com -->
    <title>ic_fluent_add_28_regular</title>
    <desc>Created with Sketch.</desc>
    <g id="ðŸ”-Product-Icons" stroke="none" stroke-width="1" fill="none" fill-rule="evenodd">
        <g id="ic_fluent_add_28_regular" fill="#212121" fill-rule="nonzero">
            <path d="M14.333 7.062A2.752 2.752 0 0 0 9.79 4.978a2.74 2.74 0 0 0-1.293-.62c.274-2.11 2.448-2.35 2.545-2.36a.469.469 0 0 0-.086-.933 4.47 4.47 0 0 0-1.687.572A3.474 3.474 0 0 0 8 2.904a4.482 4.482 0 0 0-.993-1.81C6.337.35 5.617.047 5.587.035a.469.469 0 0 0-.624.283c-.011.034-.273.83-.085 1.83.14.752.563 1.743 1.72 2.549a2.768 2.768 0 0 0-.388.28 2.752 2.752 0 0 0-4.542 2.084c0 1.152.713 2.14 1.72 2.549a2.733 2.733 0 0 0 .323 2.156 2.73 2.73 0 0 0 1.555 1.19 2.723 2.723 0 0 0 .527 1.932A2.724 2.724 0 0 0 8 16a2.752 2.752 0 0 0 2.733-3.044 2.753 2.753 0 0 0 1.879-3.345 2.753 2.753 0 0 0 1.72-2.55Zm-4.521 0c0 .999-.813 1.811-1.812 1.811A1.814 1.814 0 0 1 6.19 7.062C6.189 6.062 7 5.25 8 5.25c1 0 1.812.813 1.812 1.812ZM5.75 1.216c.563.414 1.39 1.272 1.484 2.78C5.875 3.1 5.707 1.918 5.75 1.215ZM2.605 7.062A1.814 1.814 0 0 1 5.612 5.7c-.23.401-.36.866-.36 1.36 0 .496.13.96.36 1.362a1.814 1.814 0 0 1-3.007-1.36Zm1.903 4.212a1.802 1.802 0 0 1-.201-1.466 2.732 2.732 0 0 0 1.903-.662c.304.262.665.458 1.062.567a2.737 2.737 0 0 0 .181 1.747 1.797 1.797 0 0 1-1.587.662 1.796 1.796 0 0 1-1.358-.848ZM8 15.063a1.795 1.795 0 0 1-1.454-.733 1.795 1.795 0 0 1-.348-1.266 2.722 2.722 0 0 0 1.804-.812 2.77 2.77 0 0 0 1.8.811 1.814 1.814 0 0 1-1.801 2Zm3.538-3.867a1.783 1.783 0 0 1-1.402.926h-.001a1.821 1.821 0 0 1-1.733-.87 1.804 1.804 0 0 1-.183-1.45 2.737 2.737 0 0 0 1.572-.656 2.731 2.731 0 0 0 1.903.662c.138.46.085.953-.156 1.389Zm.046-2.323a1.8 1.8 0 0 1-1.196-.45c.23-.402.361-.866.361-1.361s-.131-.96-.36-1.361a1.814 1.814 0 0 1 3.007 1.36c0 1-.813 1.812-1.812 1.812Z"></path>
         
        </g>
    </g>
</svg>