<?xml version="1.0" encoding="UTF-8"?>
<svg width="25px" height="25px" viewBox="0 0 28 28" version="1.1" xmlns="http://www.w3.org/2000/svg" xmlns:xlink="http://www.w3.org/1999/xlink">
    <!-- Uploaded to SVGRepo https://www.svgrepo.com -->
    <title>ic_fluent_add_28_regular</title>
    <desc>Created with Sketch.</desc>
    <g id="ðŸ”-Product-Icons" stroke="none" stroke-width="1" fill="none" fill-rule="evenodd">
        <g id="ic_fluent_add_28_regular" fill="#212121" fill-rule="nonzero">
            <path d="M8.003.344a5.946 5.946 0 0 0-5.937 5.94c0 3.088 4.906 8.55 5.465 9.166a.64.64 0 0 0 .944 0c.56-.612 5.466-6.078 5.466-9.166A5.948 5.948 0 0 0 8.003.344Zm0 13.712C6.366 12.17 3.341 8.272 3.341 6.284A4.67 4.67 0 0 1 8.003 1.62a4.67 4.67 0 0 1 4.663 4.665c0 1.985-3.028 5.885-4.663 7.772Z"></path>
            <path d="M8.003 6.081a.66.66 0 1 0 0-1.318.66.66 0 0 0 0 1.318Z"></path>
        </g>
    </g>
</svg>