<?xml version="1.0" encoding="UTF-8"?>
<svg width="25px" height="25px" viewBox="0 0 28 28" version="1.1" xmlns="http://www.w3.org/2000/svg" xmlns:xlink="http://www.w3.org/1999/xlink">
    <!-- Uploaded to SVGRepo https://www.svgrepo.com -->
    <title>ic_fluent_add_28_regular</title>
    <desc>Created with Sketch.</desc>
    <g id="ðŸ”-Product-Icons" stroke="none" stroke-width="1" fill="none" fill-rule="evenodd">
        <g id="ic_fluent_add_28_regular" fill="#212121" fill-rule="nonzero">
            <path d="M15.21.789c-.48-.481-1.144-.76-1.867-.786-.686-.027-1.39.166-2.026.557a.595.595 0 1 0 .62 1.018c.866-.53 1.864-.507 2.428.057.332.331.484.812.428 1.353-.06.587-.349 1.164-.813 1.628-.464.465-1.045.753-1.628.813-.541.053-1.022-.1-1.354-.428a1.142 1.142 0 0 0-1.609 0c-.215.216-.331.501-.331.806 0 .305.12.59.335.806a1.142 1.142 0 0 0 1.735-.15c.315.114.653.173 1.011.173.11 0 .223-.006.335-.016.01 0 .02-.004.03-.004l.103 1.49c.023.338-.103.67-.342.912l-5.562 5.555a.805.805 0 0 1-1.134 0l-4.143-4.142a.798.798 0 0 1 0-1.135l5.56-5.559c.238-.238.57-.364.908-.341l4.938.328a.598.598 0 1 0 .08-1.194l-4.939-.328a2.358 2.358 0 0 0-1.83.69L.583 8.45A1.982 1.982 0 0 0 0 9.863c0 .535.209 1.035.584 1.413l4.139 4.14a2.002 2.002 0 0 0 2.826 0l5.559-5.56a2.372 2.372 0 0 0 .69-1.837l-.12-1.744a4.215 4.215 0 0 0 1.151-.816c.657-.657 1.068-1.493 1.154-2.352.09-.905-.185-1.728-.772-2.318Z"></path>
        </g>
    </g>
</svg>